<svg width="20" height="20" viewBox="0 0 20 20" fill="none" xmlns="http://www.w3.org/2000/svg">
<rect width="20" height="20" rx="10" fill="white"/>
<path d="M4.50986 11.4855C4.50986 12.0193 4.62701 12.4291 4.78014 12.677C4.9809 13.0017 5.28035 13.1393 5.58562 13.1393C5.97937 13.1393 6.33958 13.0416 7.03375 12.0815C7.58986 11.312 8.24513 10.2319 8.68605 9.55472L9.4327 8.40749C9.95139 7.61075 10.5517 6.72506 11.2401 6.12472C11.802 5.63472 12.4082 5.36249 13.0183 5.36249C14.0425 5.36249 15.0181 5.95604 15.7648 7.06923C16.5819 8.2884 16.9786 9.82402 16.9786 11.4087C16.9786 12.3508 16.7929 13.043 16.4769 13.5899C16.1717 14.1188 15.5767 14.6472 14.5758 14.6472V13.1393C15.4328 13.1393 15.6467 12.3518 15.6467 11.4505C15.6467 10.1662 15.3472 8.74097 14.6876 7.72255C14.2194 7.00019 13.6128 6.55881 12.9454 6.55881C12.2235 6.55881 11.6426 7.10325 10.9897 8.07402C10.6426 8.58978 10.2863 9.21832 9.88625 9.92756L9.44583 10.7078C8.56112 12.2764 8.33701 12.6337 7.89465 13.2234C7.11931 14.2559 6.45723 14.6472 5.58562 14.6472C4.55167 14.6472 3.89785 14.1995 3.49292 13.5248C3.16236 12.975 3 12.2536 3 11.4316L4.50986 11.4855Z" fill="#0081FB"/>
<path d="M4.19043 7.17568C4.88266 6.10867 5.88161 5.36249 7.02737 5.36249C7.69092 5.36249 8.35057 5.55887 9.03938 6.12131C9.79286 6.73624 10.5959 7.7488 11.5978 9.41762L11.957 10.0165C12.8242 11.4612 13.3177 12.2045 13.6064 12.555C13.9778 13.0051 14.2379 13.1393 14.5757 13.1393C15.4327 13.1393 15.6466 12.3518 15.6466 11.4505L16.9786 11.4087C16.9786 12.3508 16.7929 13.043 16.4769 13.5899C16.1716 14.1188 15.5766 14.6472 14.5757 14.6472C13.9535 14.6472 13.4022 14.5121 12.7927 13.937C12.324 13.4956 11.7762 12.7115 11.3547 12.0067L10.1011 9.91249C9.47204 8.86153 8.89501 8.07791 8.56105 7.72304C8.20181 7.34144 7.74001 6.88061 7.00307 6.88061C6.40661 6.88061 5.90007 7.29916 5.47619 7.93936L4.19043 7.17568Z" fill="url(#paint0_linear_212_4653)"/>
<path d="M7.00312 6.88061C6.40667 6.88061 5.90013 7.29916 5.47625 7.93936C4.87687 8.84403 4.50986 10.1915 4.50986 11.4855C4.50986 12.0193 4.62701 12.4291 4.78014 12.677L3.49292 13.5248C3.16236 12.975 3 12.2536 3 11.4316C3 9.9368 3.41028 8.37881 4.19049 7.17568C4.8827 6.10867 5.88167 5.36249 7.02743 5.36249L7.00312 6.88061Z" fill="url(#paint1_linear_212_4653)"/>
<defs>
<linearGradient id="paint0_linear_212_4653" x1="5.96523" y1="11.05" x2="15.5902" y2="11.5361" gradientUnits="userSpaceOnUse">
<stop stop-color="#0064E1"/>
<stop offset="0.4" stop-color="#0064E1"/>
<stop offset="0.83" stop-color="#0073EE"/>
<stop offset="1" stop-color="#0082FB"/>
</linearGradient>
<linearGradient id="paint1_linear_212_4653" x1="5.1875" y1="12.1194" x2="5.1875" y2="8.57082" gradientUnits="userSpaceOnUse">
<stop stop-color="#0082FB"/>
<stop offset="1" stop-color="#0064E0"/>
</linearGradient>
</defs>
</svg>
